M48
; DRILL file KiCad 10.0.2 date 2026-05-29T14:25:03
; FORMAT={-:-/ absolute / metric / decimal}
; #@! TF.CreationDate,2026-05-29T14:25:03+02:00
; #@! TF.GenerationSoftware,Kicad,Pcbnew,10.0.2
; #@! TF.FileFunction,Plated,1,2,PTH
FMAT,2
METRIC
; #@! TA.AperFunction,Plated,PTH,ComponentDrill
T1C0.800
; #@! TA.AperFunction,Plated,PTH,ViaDrill
T2C0.900
; #@! TA.AperFunction,Plated,PTH,ComponentDrill
T3C0.900
; #@! TA.AperFunction,Plated,PTH,ComponentDrill
T4C1.000
; #@! TA.AperFunction,Plated,PTH,ComponentDrill
T5C1.100
; #@! TA.AperFunction,Plated,PTH,ComponentDrill
T6C1.200
%
G90
G05
T1
X36.812Y32.385
X36.812Y29.845
X36.812Y27.305
X36.812Y24.765
X36.812Y22.225
X36.812Y19.685
X36.812Y17.145
X39.276Y19.594
X39.352Y32.385
X39.352Y29.845
X39.352Y27.305
X39.352Y24.765
X39.352Y22.225
X39.352Y17.145
T2
X45.085Y17.145
T3
X4.822Y46.99
X4.822Y31.75
X7.362Y46.99
X7.362Y31.75
X9.902Y46.99
X9.902Y31.75
X12.442Y46.99
X12.442Y31.75
X14.982Y46.99
X14.982Y31.75
X17.522Y46.99
X17.522Y31.75
X20.062Y46.99
X20.062Y31.75
T4
X4.826Y50.8
X7.366Y50.8
X9.906Y50.8
X12.446Y50.8
X14.986Y50.8
X42.748Y41.275
X45.288Y51.435
X45.288Y48.895
X45.288Y46.355
X45.288Y43.815
X45.288Y41.275
X50.165Y51.308
X50.165Y48.768
X50.165Y42.545
X50.165Y40.005
T5
X5.08Y2.54
X18.98Y2.54
T6
X-100.143Y125.035
X-100.143Y117.415
X5.08Y25.4
X8.38Y25.4
X15.68Y25.4
X18.98Y25.4
M30
