%TF.GenerationSoftware,KiCad,Pcbnew,10.0.2*%
%TF.CreationDate,2026-05-29T14:24:57+02:00*%
%TF.ProjectId,RTK_Kicad,52544b5f-4b69-4636-9164-2e6b69636164,rev?*%
%TF.SameCoordinates,PX60e4b00PY7df6180*%
%TF.FileFunction,Legend,Top*%
%TF.FilePolarity,Positive*%
%FSLAX46Y46*%
G04 Gerber Fmt 4.6, Leading zero omitted, Abs format (unit mm)*
G04 Created by KiCad (PCBNEW 10.0.2) date 2026-05-29 14:24:57*
%MOMM*%
%LPD*%
G01*
G04 APERTURE LIST*
%ADD10C,0.200000*%
%ADD11C,0.150000*%
%ADD12C,0.106680*%
%ADD13C,0.120000*%
%ADD14C,0.100000*%
%ADD15C,0.127000*%
%TA.AperFunction,Profile*%
%ADD16C,0.050000*%
%TD*%
G04 APERTURE END LIST*
D10*
X55487673Y41976278D02*
X56249578Y41976278D01*
X55868625Y41595325D02*
X55868625Y42357230D01*
X57821006Y42119135D02*
X57963863Y42071516D01*
X57963863Y42071516D02*
X58011482Y42023897D01*
X58011482Y42023897D02*
X58059101Y41928659D01*
X58059101Y41928659D02*
X58059101Y41785802D01*
X58059101Y41785802D02*
X58011482Y41690564D01*
X58011482Y41690564D02*
X57963863Y41642944D01*
X57963863Y41642944D02*
X57868625Y41595325D01*
X57868625Y41595325D02*
X57487673Y41595325D01*
X57487673Y41595325D02*
X57487673Y42595325D01*
X57487673Y42595325D02*
X57821006Y42595325D01*
X57821006Y42595325D02*
X57916244Y42547706D01*
X57916244Y42547706D02*
X57963863Y42500087D01*
X57963863Y42500087D02*
X58011482Y42404849D01*
X58011482Y42404849D02*
X58011482Y42309611D01*
X58011482Y42309611D02*
X57963863Y42214373D01*
X57963863Y42214373D02*
X57916244Y42166754D01*
X57916244Y42166754D02*
X57821006Y42119135D01*
X57821006Y42119135D02*
X57487673Y42119135D01*
X58440054Y41881040D02*
X58916244Y41881040D01*
X58344816Y41595325D02*
X58678149Y42595325D01*
X58678149Y42595325D02*
X59011482Y41595325D01*
X59201959Y42595325D02*
X59773387Y42595325D01*
X59487673Y41595325D02*
X59487673Y42595325D01*
X55487673Y40366334D02*
X56249578Y40366334D01*
X57821006Y40509191D02*
X57963863Y40461572D01*
X57963863Y40461572D02*
X58011482Y40413953D01*
X58011482Y40413953D02*
X58059101Y40318715D01*
X58059101Y40318715D02*
X58059101Y40175858D01*
X58059101Y40175858D02*
X58011482Y40080620D01*
X58011482Y40080620D02*
X57963863Y40033000D01*
X57963863Y40033000D02*
X57868625Y39985381D01*
X57868625Y39985381D02*
X57487673Y39985381D01*
X57487673Y39985381D02*
X57487673Y40985381D01*
X57487673Y40985381D02*
X57821006Y40985381D01*
X57821006Y40985381D02*
X57916244Y40937762D01*
X57916244Y40937762D02*
X57963863Y40890143D01*
X57963863Y40890143D02*
X58011482Y40794905D01*
X58011482Y40794905D02*
X58011482Y40699667D01*
X58011482Y40699667D02*
X57963863Y40604429D01*
X57963863Y40604429D02*
X57916244Y40556810D01*
X57916244Y40556810D02*
X57821006Y40509191D01*
X57821006Y40509191D02*
X57487673Y40509191D01*
X58440054Y40271096D02*
X58916244Y40271096D01*
X58344816Y39985381D02*
X58678149Y40985381D01*
X58678149Y40985381D02*
X59011482Y39985381D01*
X59201959Y40985381D02*
X59773387Y40985381D01*
X59487673Y39985381D02*
X59487673Y40985381D01*
D11*
X53216667Y53170800D02*
X53359524Y53123181D01*
X53359524Y53123181D02*
X53597619Y53123181D01*
X53597619Y53123181D02*
X53692857Y53170800D01*
X53692857Y53170800D02*
X53740476Y53218420D01*
X53740476Y53218420D02*
X53788095Y53313658D01*
X53788095Y53313658D02*
X53788095Y53408896D01*
X53788095Y53408896D02*
X53740476Y53504134D01*
X53740476Y53504134D02*
X53692857Y53551753D01*
X53692857Y53551753D02*
X53597619Y53599372D01*
X53597619Y53599372D02*
X53407143Y53646991D01*
X53407143Y53646991D02*
X53311905Y53694610D01*
X53311905Y53694610D02*
X53264286Y53742229D01*
X53264286Y53742229D02*
X53216667Y53837467D01*
X53216667Y53837467D02*
X53216667Y53932705D01*
X53216667Y53932705D02*
X53264286Y54027943D01*
X53264286Y54027943D02*
X53311905Y54075562D01*
X53311905Y54075562D02*
X53407143Y54123181D01*
X53407143Y54123181D02*
X53645238Y54123181D01*
X53645238Y54123181D02*
X53788095Y54075562D01*
X54121429Y54123181D02*
X54359524Y53123181D01*
X54359524Y53123181D02*
X54550000Y53837467D01*
X54550000Y53837467D02*
X54740476Y53123181D01*
X54740476Y53123181D02*
X54978572Y54123181D01*
X55883333Y53123181D02*
X55311905Y53123181D01*
X55597619Y53123181D02*
X55597619Y54123181D01*
X55597619Y54123181D02*
X55502381Y53980324D01*
X55502381Y53980324D02*
X55407143Y53885086D01*
X55407143Y53885086D02*
X55311905Y53837467D01*
X54216666Y45360181D02*
X54216666Y44645896D01*
X54216666Y44645896D02*
X54169047Y44503039D01*
X54169047Y44503039D02*
X54073809Y44407800D01*
X54073809Y44407800D02*
X53930952Y44360181D01*
X53930952Y44360181D02*
X53835714Y44360181D01*
X54645238Y45264943D02*
X54692857Y45312562D01*
X54692857Y45312562D02*
X54788095Y45360181D01*
X54788095Y45360181D02*
X55026190Y45360181D01*
X55026190Y45360181D02*
X55121428Y45312562D01*
X55121428Y45312562D02*
X55169047Y45264943D01*
X55169047Y45264943D02*
X55216666Y45169705D01*
X55216666Y45169705D02*
X55216666Y45074467D01*
X55216666Y45074467D02*
X55169047Y44931610D01*
X55169047Y44931610D02*
X54597619Y44360181D01*
X54597619Y44360181D02*
X55216666Y44360181D01*
X-100801715Y133358990D02*
X-100658858Y133311371D01*
X-100658858Y133311371D02*
X-100611239Y133263752D01*
X-100611239Y133263752D02*
X-100563620Y133168514D01*
X-100563620Y133168514D02*
X-100563620Y133025657D01*
X-100563620Y133025657D02*
X-100611239Y132930419D01*
X-100611239Y132930419D02*
X-100658858Y132882800D01*
X-100658858Y132882800D02*
X-100754096Y132835180D01*
X-100754096Y132835180D02*
X-101135048Y132835180D01*
X-101135048Y132835180D02*
X-101135048Y133835180D01*
X-101135048Y133835180D02*
X-100801715Y133835180D01*
X-100801715Y133835180D02*
X-100706477Y133787561D01*
X-100706477Y133787561D02*
X-100658858Y133739942D01*
X-100658858Y133739942D02*
X-100611239Y133644704D01*
X-100611239Y133644704D02*
X-100611239Y133549466D01*
X-100611239Y133549466D02*
X-100658858Y133454228D01*
X-100658858Y133454228D02*
X-100706477Y133406609D01*
X-100706477Y133406609D02*
X-100801715Y133358990D01*
X-100801715Y133358990D02*
X-101135048Y133358990D01*
X-100277905Y133835180D02*
X-99706477Y133835180D01*
X-99992191Y132835180D02*
X-99992191Y133835180D01*
X-98849334Y132835180D02*
X-99420762Y132835180D01*
X-99135048Y132835180D02*
X-99135048Y133835180D01*
X-99135048Y133835180D02*
X-99230286Y133692323D01*
X-99230286Y133692323D02*
X-99325524Y133597085D01*
X-99325524Y133597085D02*
X-99420762Y133549466D01*
X67818095Y54765181D02*
X67818095Y55765181D01*
X67818095Y55288991D02*
X68389523Y55288991D01*
X68389523Y54765181D02*
X68389523Y55765181D01*
X68818095Y55669943D02*
X68865714Y55717562D01*
X68865714Y55717562D02*
X68960952Y55765181D01*
X68960952Y55765181D02*
X69199047Y55765181D01*
X69199047Y55765181D02*
X69294285Y55717562D01*
X69294285Y55717562D02*
X69341904Y55669943D01*
X69341904Y55669943D02*
X69389523Y55574705D01*
X69389523Y55574705D02*
X69389523Y55479467D01*
X69389523Y55479467D02*
X69341904Y55336610D01*
X69341904Y55336610D02*
X68770476Y54765181D01*
X68770476Y54765181D02*
X69389523Y54765181D01*
X25908095Y54765181D02*
X25908095Y55765181D01*
X25908095Y55288991D02*
X26479523Y55288991D01*
X26479523Y54765181D02*
X26479523Y55765181D01*
X27479523Y54765181D02*
X26908095Y54765181D01*
X27193809Y54765181D02*
X27193809Y55765181D01*
X27193809Y55765181D02*
X27098571Y55622324D01*
X27098571Y55622324D02*
X27003333Y55527086D01*
X27003333Y55527086D02*
X26908095Y55479467D01*
X41529095Y54887981D02*
X41529095Y54078458D01*
X41529095Y54078458D02*
X41576714Y53983220D01*
X41576714Y53983220D02*
X41624333Y53935600D01*
X41624333Y53935600D02*
X41719571Y53887981D01*
X41719571Y53887981D02*
X41910047Y53887981D01*
X41910047Y53887981D02*
X42005285Y53935600D01*
X42005285Y53935600D02*
X42052904Y53983220D01*
X42052904Y53983220D02*
X42100523Y54078458D01*
X42100523Y54078458D02*
X42100523Y54887981D01*
X42529095Y54792743D02*
X42576714Y54840362D01*
X42576714Y54840362D02*
X42671952Y54887981D01*
X42671952Y54887981D02*
X42910047Y54887981D01*
X42910047Y54887981D02*
X43005285Y54840362D01*
X43005285Y54840362D02*
X43052904Y54792743D01*
X43052904Y54792743D02*
X43100523Y54697505D01*
X43100523Y54697505D02*
X43100523Y54602267D01*
X43100523Y54602267D02*
X43052904Y54459410D01*
X43052904Y54459410D02*
X42481476Y53887981D01*
X42481476Y53887981D02*
X43100523Y53887981D01*
X40530595Y37810181D02*
X40530595Y37000658D01*
X40530595Y37000658D02*
X40578214Y36905420D01*
X40578214Y36905420D02*
X40625833Y36857800D01*
X40625833Y36857800D02*
X40721071Y36810181D01*
X40721071Y36810181D02*
X40911547Y36810181D01*
X40911547Y36810181D02*
X41006785Y36857800D01*
X41006785Y36857800D02*
X41054404Y36905420D01*
X41054404Y36905420D02*
X41102023Y37000658D01*
X41102023Y37000658D02*
X41102023Y37810181D01*
X42102023Y36810181D02*
X41530595Y36810181D01*
X41816309Y36810181D02*
X41816309Y37810181D01*
X41816309Y37810181D02*
X41721071Y37667324D01*
X41721071Y37667324D02*
X41625833Y37572086D01*
X41625833Y37572086D02*
X41530595Y37524467D01*
D12*
X722391Y37848451D02*
X1355698Y37848451D01*
X1355698Y37848451D02*
X1430204Y37885704D01*
X1430204Y37885704D02*
X1467458Y37922958D01*
X1467458Y37922958D02*
X1504711Y37997464D01*
X1504711Y37997464D02*
X1504711Y38146478D01*
X1504711Y38146478D02*
X1467458Y38220984D01*
X1467458Y38220984D02*
X1430204Y38258238D01*
X1430204Y38258238D02*
X1355698Y38295491D01*
X1355698Y38295491D02*
X722391Y38295491D01*
X722391Y38593517D02*
X722391Y39077811D01*
X722391Y39077811D02*
X1020418Y38817037D01*
X1020418Y38817037D02*
X1020418Y38928797D01*
X1020418Y38928797D02*
X1057671Y39003304D01*
X1057671Y39003304D02*
X1094924Y39040557D01*
X1094924Y39040557D02*
X1169431Y39077811D01*
X1169431Y39077811D02*
X1355698Y39077811D01*
X1355698Y39077811D02*
X1430204Y39040557D01*
X1430204Y39040557D02*
X1467458Y39003304D01*
X1467458Y39003304D02*
X1504711Y38928797D01*
X1504711Y38928797D02*
X1504711Y38705277D01*
X1504711Y38705277D02*
X1467458Y38630771D01*
X1467458Y38630771D02*
X1430204Y38593517D01*
D11*
X25908095Y6505181D02*
X25908095Y7505181D01*
X25908095Y7028991D02*
X26479523Y7028991D01*
X26479523Y6505181D02*
X26479523Y7505181D01*
X27384285Y7171848D02*
X27384285Y6505181D01*
X27146190Y7552800D02*
X26908095Y6838515D01*
X26908095Y6838515D02*
X27527142Y6838515D01*
X-2196181Y-17525904D02*
X-1386658Y-17525904D01*
X-1386658Y-17525904D02*
X-1291420Y-17478285D01*
X-1291420Y-17478285D02*
X-1243800Y-17430666D01*
X-1243800Y-17430666D02*
X-1196181Y-17335428D01*
X-1196181Y-17335428D02*
X-1196181Y-17144952D01*
X-1196181Y-17144952D02*
X-1243800Y-17049714D01*
X-1243800Y-17049714D02*
X-1291420Y-17002095D01*
X-1291420Y-17002095D02*
X-1386658Y-16954476D01*
X-1386658Y-16954476D02*
X-2196181Y-16954476D01*
X-1862848Y-16049714D02*
X-1196181Y-16049714D01*
X-2243800Y-16287809D02*
X-1529515Y-16525904D01*
X-1529515Y-16525904D02*
X-1529515Y-15906857D01*
X16820819Y50466667D02*
X17535104Y50466667D01*
X17535104Y50466667D02*
X17677961Y50419048D01*
X17677961Y50419048D02*
X17773200Y50323810D01*
X17773200Y50323810D02*
X17820819Y50180953D01*
X17820819Y50180953D02*
X17820819Y50085715D01*
X17820819Y51466667D02*
X17820819Y50895239D01*
X17820819Y51180953D02*
X16820819Y51180953D01*
X16820819Y51180953D02*
X16963676Y51085715D01*
X16963676Y51085715D02*
X17058914Y50990477D01*
X17058914Y50990477D02*
X17106533Y50895239D01*
X-99886905Y84700181D02*
X-99886905Y85700181D01*
X-99886905Y85223991D02*
X-99315477Y85223991D01*
X-99315477Y84700181D02*
X-99315477Y85700181D01*
X-98934524Y85700181D02*
X-98315477Y85700181D01*
X-98315477Y85700181D02*
X-98648810Y85319229D01*
X-98648810Y85319229D02*
X-98505953Y85319229D01*
X-98505953Y85319229D02*
X-98410715Y85271610D01*
X-98410715Y85271610D02*
X-98363096Y85223991D01*
X-98363096Y85223991D02*
X-98315477Y85128753D01*
X-98315477Y85128753D02*
X-98315477Y84890658D01*
X-98315477Y84890658D02*
X-98363096Y84795420D01*
X-98363096Y84795420D02*
X-98410715Y84747800D01*
X-98410715Y84747800D02*
X-98505953Y84700181D01*
X-98505953Y84700181D02*
X-98791667Y84700181D01*
X-98791667Y84700181D02*
X-98886905Y84747800D01*
X-98886905Y84747800D02*
X-98934524Y84795420D01*
%TO.C,SW1*%
D13*
X48895000Y52578000D02*
X50165000Y52578000D01*
X48895000Y51308000D02*
X48895000Y52578000D01*
X51242358Y49198000D02*
X51555000Y49198000D01*
X51242358Y48338000D02*
X51555000Y48338000D01*
X51325000Y51738000D02*
X51555000Y51738000D01*
X51325000Y50878000D02*
X51555000Y50878000D01*
X51555000Y50038000D02*
X54315000Y50038000D01*
X54315000Y49198000D02*
X60315000Y49198000D01*
X60315000Y49198000D02*
X60315000Y48338000D01*
X60315000Y48338000D02*
X54315000Y48338000D01*
X51555000Y52688000D02*
X54315000Y52688000D01*
X54315000Y47388000D01*
X51555000Y47388000D01*
X51555000Y52688000D01*
X54315000Y51738000D02*
X60315000Y51738000D01*
X60315000Y50878000D01*
X54315000Y50878000D01*
X54315000Y51738000D01*
G36*
X54315000Y51738000D02*
G01*
X60315000Y51738000D01*
X60315000Y50878000D01*
X54315000Y50878000D01*
X54315000Y51738000D01*
G37*
%TO.C,J2*%
X48895000Y43815000D02*
X50165000Y43815000D01*
X48895000Y42545000D02*
X48895000Y43815000D01*
X51242358Y40435000D02*
X51555000Y40435000D01*
X51242358Y39575000D02*
X51555000Y39575000D01*
X51325000Y42975000D02*
X51555000Y42975000D01*
X51325000Y42115000D02*
X51555000Y42115000D01*
X51555000Y41275000D02*
X54315000Y41275000D01*
X54315000Y40435000D02*
X60315000Y40435000D01*
X60315000Y40435000D02*
X60315000Y39575000D01*
X60315000Y39575000D02*
X54315000Y39575000D01*
X51555000Y43925000D02*
X54315000Y43925000D01*
X54315000Y38625000D01*
X51555000Y38625000D01*
X51555000Y43925000D01*
X54315000Y42975000D02*
X60315000Y42975000D01*
X60315000Y42115000D01*
X54315000Y42115000D01*
X54315000Y42975000D01*
G36*
X54315000Y42975000D02*
G01*
X60315000Y42975000D01*
X60315000Y42115000D01*
X54315000Y42115000D01*
X54315000Y42975000D01*
G37*
%TO.C,BT1*%
X-101540000Y132020000D02*
X-101540000Y129162500D01*
X-101540000Y132020000D02*
X-99791750Y132020000D01*
X-101540000Y85538000D02*
X-101540000Y128845000D01*
X-98873000Y132020000D02*
X-36008000Y132020000D01*
X-36008000Y132020000D02*
X-36008000Y85538000D01*
X-36008000Y85538000D02*
X-101540000Y85538000D01*
%TO.C,U2*%
X31021000Y51342800D02*
X31021000Y49342800D01*
X31267400Y39776400D02*
X46786800Y39776400D01*
X31271000Y52902800D02*
X31271000Y39776400D01*
X31271000Y52902800D02*
X46786800Y52902800D01*
X46786800Y52902800D02*
X46786800Y39776400D01*
%TO.C,U1*%
D14*
X34907500Y34290000D02*
X34907500Y26035000D01*
X34907500Y34290000D02*
X48242500Y34290000D01*
X34907500Y5080000D02*
X34942500Y3610000D01*
X34942500Y3610000D02*
X43197500Y3610000D01*
X67292500Y34290000D02*
X72372500Y34290000D01*
X72372500Y34290000D02*
X72372500Y31750000D01*
X72372500Y7620000D02*
X72407500Y3610000D01*
X72372500Y3610000D02*
X66022500Y3610000D01*
%TO.C,U3*%
D15*
X395000Y35378728D02*
X395000Y43374000D01*
X895000Y43874000D02*
X1905000Y43874000D01*
D14*
X1905000Y46355000D02*
X1905000Y32385000D01*
D15*
X1905000Y34875000D02*
X894728Y34878728D01*
D14*
X20967000Y30280000D02*
X3822000Y30280000D01*
X21014500Y48480000D02*
X3869500Y48480000D01*
X22860000Y32385000D02*
X22860000Y46355000D01*
D15*
X395000Y43374000D02*
G75*
G02*
X895000Y43874000I500000J0D01*
G01*
X894728Y34878728D02*
G75*
G02*
X394998Y35378728I292J500022D01*
G01*
D14*
X1905000Y46355000D02*
G75*
G02*
X3810000Y48260000I1905000J0D01*
G01*
X3806000Y30480000D02*
G75*
G02*
X1901000Y32385000I1J1905001D01*
G01*
X20955000Y48260000D02*
G75*
G02*
X22860000Y46355000I0J-1905000D01*
G01*
X22860000Y32385000D02*
G75*
G02*
X20955000Y30480000I-1905000J0D01*
G01*
%TO.C,U4*%
D13*
X2378000Y29210000D02*
X21682000Y29210000D01*
X2378000Y3302000D02*
X2378000Y29210000D01*
X2378000Y440500D02*
X2378000Y3115500D01*
X2378000Y381000D02*
X5172000Y381000D01*
X21682000Y29210000D02*
X21682000Y381000D01*
X21682000Y381000D02*
X6188000Y381000D01*
%TO.C,J1*%
X3446000Y52180000D02*
X3446000Y49420000D01*
X13716000Y52180000D02*
X3446000Y52180000D01*
X13716000Y52180000D02*
X13716000Y49420000D01*
X13716000Y49420000D02*
X3446000Y49420000D01*
X14986000Y52180000D02*
X16366000Y52180000D01*
X16366000Y52180000D02*
X16366000Y50800000D01*
%TD*%
D16*
X0Y53022500D02*
X0Y2540000D01*
X2286000Y0D02*
X0Y2540000D01*
X2286000Y0D02*
X70866000Y0D01*
X2794000Y55880000D02*
X0Y53022500D01*
X65660000Y48260000D02*
X73653200Y48260000D01*
X65660000Y33782000D02*
X65660000Y48260000D01*
X66700400Y16662400D02*
X73634600Y16662400D01*
X66700400Y5588000D02*
X66700400Y16662400D01*
X70866000Y55880000D02*
X2794000Y55880000D01*
X70866000Y55880000D02*
X73660000Y52133500D01*
X70866000Y0D02*
X73660000Y3556000D01*
X73634600Y16662400D02*
X73660000Y33782000D01*
X73660000Y48260000D02*
X73660000Y52133500D01*
X73660000Y33782000D02*
X65660000Y33782000D01*
X73660000Y5588000D02*
X66700400Y5588000D01*
X73660000Y5588000D02*
X73660000Y3556000D01*
M02*
