%TF.GenerationSoftware,KiCad,Pcbnew,10.0.2*%
%TF.CreationDate,2026-05-29T14:24:58+02:00*%
%TF.ProjectId,RTK_Kicad,52544b5f-4b69-4636-9164-2e6b69636164,rev?*%
%TF.SameCoordinates,PX60e4b00PY7df6180*%
%TF.FileFunction,Soldermask,Top*%
%TF.FilePolarity,Negative*%
%FSLAX46Y46*%
G04 Gerber Fmt 4.6, Leading zero omitted, Abs format (unit mm)*
G04 Created by KiCad (PCBNEW 10.0.2) date 2026-05-29 14:24:58*
%MOMM*%
%LPD*%
G01*
G04 APERTURE LIST*
G04 Aperture macros list*
%AMRoundRect*
0 Rectangle with rounded corners*
0 $1 Rounding radius*
0 $2 $3 $4 $5 $6 $7 $8 $9 X,Y pos of 4 corners*
0 Add a 4 corners polygon primitive as box body*
4,1,4,$2,$3,$4,$5,$6,$7,$8,$9,$2,$3,0*
0 Add four circle primitives for the rounded corners*
1,1,$1+$1,$2,$3*
1,1,$1+$1,$4,$5*
1,1,$1+$1,$6,$7*
1,1,$1+$1,$8,$9*
0 Add four rect primitives between the rounded corners*
20,1,$1+$1,$2,$3,$4,$5,0*
20,1,$1+$1,$4,$5,$6,$7,0*
20,1,$1+$1,$6,$7,$8,$9,0*
20,1,$1+$1,$8,$9,$2,$3,0*%
G04 Aperture macros list end*
%ADD10R,1.700000X1.700000*%
%ADD11C,1.700000*%
%ADD12R,2.200000X2.200000*%
%ADD13C,2.200000*%
%ADD14C,1.500000*%
%ADD15RoundRect,0.375000X-0.375000X-0.375000X0.375000X-0.375000X0.375000X0.375000X-0.375000X0.375000X0*%
%ADD16C,2.000000*%
%ADD17R,2.000000X2.000000*%
%ADD18RoundRect,0.525400X0.525400X-0.900400X0.525400X0.900400X-0.525400X0.900400X-0.525400X-0.900400X0*%
%ADD19C,2.100000*%
%ADD20R,2.100000X2.100000*%
%TA.AperFunction,Profile*%
%ADD21C,0.050000*%
%TD*%
G04 APERTURE END LIST*
D10*
%TO.C,SW1*%
X50165000Y51308000D03*
D11*
X50165000Y48768000D03*
%TD*%
D10*
%TO.C,J2*%
X50165000Y42545000D03*
D11*
X50165000Y40005000D03*
%TD*%
D12*
%TO.C,BT1*%
X-100143000Y117415000D03*
D13*
X-100143000Y125035000D03*
%TD*%
%TO.C,H2*%
X68580000Y52070000D03*
%TD*%
%TO.C,H1*%
X26670000Y52070000D03*
%TD*%
D14*
%TO.C,U2*%
X45288200Y51435000D03*
D15*
X45288200Y48895000D03*
D14*
X45288200Y46355000D03*
X45288200Y43815000D03*
X45288200Y41275000D03*
X42748200Y41275000D03*
%TD*%
D16*
%TO.C,U1*%
X36812500Y32385000D03*
X39352500Y32385000D03*
X36812500Y29845000D03*
X39352500Y29845000D03*
X36812500Y27305000D03*
X39352500Y27305000D03*
X36812500Y24765000D03*
X39352500Y24765000D03*
X36812500Y22225000D03*
X39352500Y22225000D03*
X36812500Y19685000D03*
X39276279Y19593509D03*
D17*
X36812500Y17145000D03*
D16*
X39352500Y17145000D03*
%TD*%
D18*
%TO.C,U3*%
X4822000Y31750000D03*
X7362000Y31750000D03*
X9902000Y31750000D03*
X12442000Y31750000D03*
X14982000Y31750000D03*
X17522000Y31750000D03*
X20062000Y31750000D03*
X20062000Y46990000D03*
X17522000Y46990000D03*
X14982000Y46990000D03*
X12442000Y46990000D03*
X9902000Y46990000D03*
X7362000Y46990000D03*
X4822000Y46990000D03*
%TD*%
D13*
%TO.C,H4*%
X26670000Y3810000D03*
%TD*%
%TO.C,U4*%
X5080000Y25400000D03*
X8380000Y25400000D03*
X15680000Y25400000D03*
X18980000Y25400000D03*
D19*
X18980000Y2540000D03*
D20*
X5080000Y2540000D03*
%TD*%
D10*
%TO.C,J1*%
X14986000Y50800000D03*
D11*
X12446000Y50800000D03*
X9906000Y50800000D03*
X7366000Y50800000D03*
X4826000Y50800000D03*
%TD*%
D13*
%TO.C,H3*%
X-99125000Y82005000D03*
%TD*%
D21*
X0Y53022500D02*
X0Y2540000D01*
X2286000Y0D02*
X0Y2540000D01*
X2286000Y0D02*
X70866000Y0D01*
X2794000Y55880000D02*
X0Y53022500D01*
X65660000Y48260000D02*
X73653200Y48260000D01*
X65660000Y33782000D02*
X65660000Y48260000D01*
X66700400Y16662400D02*
X73634600Y16662400D01*
X66700400Y5588000D02*
X66700400Y16662400D01*
X70866000Y55880000D02*
X2794000Y55880000D01*
X70866000Y55880000D02*
X73660000Y52133500D01*
X70866000Y0D02*
X73660000Y3556000D01*
X73634600Y16662400D02*
X73660000Y33782000D01*
X73660000Y48260000D02*
X73660000Y52133500D01*
X73660000Y33782000D02*
X65660000Y33782000D01*
X73660000Y5588000D02*
X66700400Y5588000D01*
X73660000Y5588000D02*
X73660000Y3556000D01*
M02*
