%TF.GenerationSoftware,KiCad,Pcbnew,10.0.2*%
%TF.CreationDate,2026-05-29T14:24:57+02:00*%
%TF.ProjectId,RTK_Kicad,52544b5f-4b69-4636-9164-2e6b69636164,rev?*%
%TF.SameCoordinates,PX60e4b00PY7df6180*%
%TF.FileFunction,Copper,L2,Bot*%
%TF.FilePolarity,Positive*%
%FSLAX46Y46*%
G04 Gerber Fmt 4.6, Leading zero omitted, Abs format (unit mm)*
G04 Created by KiCad (PCBNEW 10.0.2) date 2026-05-29 14:24:57*
%MOMM*%
%LPD*%
G01*
G04 APERTURE LIST*
G04 Aperture macros list*
%AMRoundRect*
0 Rectangle with rounded corners*
0 $1 Rounding radius*
0 $2 $3 $4 $5 $6 $7 $8 $9 X,Y pos of 4 corners*
0 Add a 4 corners polygon primitive as box body*
4,1,4,$2,$3,$4,$5,$6,$7,$8,$9,$2,$3,0*
0 Add four circle primitives for the rounded corners*
1,1,$1+$1,$2,$3*
1,1,$1+$1,$4,$5*
1,1,$1+$1,$6,$7*
1,1,$1+$1,$8,$9*
0 Add four rect primitives between the rounded corners*
20,1,$1+$1,$2,$3,$4,$5,0*
20,1,$1+$1,$4,$5,$6,$7,0*
20,1,$1+$1,$6,$7,$8,$9,0*
20,1,$1+$1,$8,$9,$2,$3,0*%
G04 Aperture macros list end*
%ADD10C,0.200000*%
%TA.AperFunction,NonConductor*%
%ADD11C,0.200000*%
%TD*%
%TA.AperFunction,ComponentPad*%
%ADD12R,1.700000X1.700000*%
%TD*%
%TA.AperFunction,ComponentPad*%
%ADD13C,1.700000*%
%TD*%
%TA.AperFunction,ComponentPad*%
%ADD14R,2.200000X2.200000*%
%TD*%
%TA.AperFunction,ComponentPad*%
%ADD15C,2.200000*%
%TD*%
%TA.AperFunction,ComponentPad*%
%ADD16C,1.500000*%
%TD*%
%TA.AperFunction,ComponentPad*%
%ADD17RoundRect,0.375000X-0.375000X-0.375000X0.375000X-0.375000X0.375000X0.375000X-0.375000X0.375000X0*%
%TD*%
%TA.AperFunction,ComponentPad*%
%ADD18C,2.000000*%
%TD*%
%TA.AperFunction,ComponentPad*%
%ADD19R,2.000000X2.000000*%
%TD*%
%TA.AperFunction,ComponentPad*%
%ADD20RoundRect,0.500000X0.500000X-0.875000X0.500000X0.875000X-0.500000X0.875000X-0.500000X-0.875000X0*%
%TD*%
%TA.AperFunction,ComponentPad*%
%ADD21C,2.100000*%
%TD*%
%TA.AperFunction,ComponentPad*%
%ADD22R,2.100000X2.100000*%
%TD*%
%TA.AperFunction,ViaPad*%
%ADD23C,2.000000*%
%TD*%
%TA.AperFunction,Conductor*%
%ADD24C,1.000000*%
%TD*%
%TA.AperFunction,Conductor*%
%ADD25C,0.650000*%
%TD*%
%TA.AperFunction,Conductor*%
%ADD26C,1.270000*%
%TD*%
%TA.AperFunction,Profile*%
%ADD27C,0.050000*%
%TD*%
G04 APERTURE END LIST*
D10*
D11*
X64094660Y10997864D02*
X64023232Y10926436D01*
X64023232Y10926436D02*
X63951803Y10712150D01*
X63951803Y10712150D02*
X63951803Y10569293D01*
X63951803Y10569293D02*
X64023232Y10355007D01*
X64023232Y10355007D02*
X64166089Y10212150D01*
X64166089Y10212150D02*
X64308946Y10140721D01*
X64308946Y10140721D02*
X64594660Y10069293D01*
X64594660Y10069293D02*
X64808946Y10069293D01*
X64808946Y10069293D02*
X65094660Y10140721D01*
X65094660Y10140721D02*
X65237517Y10212150D01*
X65237517Y10212150D02*
X65380374Y10355007D01*
X65380374Y10355007D02*
X65451803Y10569293D01*
X65451803Y10569293D02*
X65451803Y10712150D01*
X65451803Y10712150D02*
X65380374Y10926436D01*
X65380374Y10926436D02*
X65308946Y10997864D01*
X64094660Y11640721D02*
X64023232Y11712150D01*
X64023232Y11712150D02*
X63951803Y11640721D01*
X63951803Y11640721D02*
X64023232Y11569293D01*
X64023232Y11569293D02*
X64094660Y11640721D01*
X64094660Y11640721D02*
X63951803Y11640721D01*
X64737517Y12855007D02*
X64737517Y12355007D01*
X63951803Y12355007D02*
X65451803Y12355007D01*
X65451803Y12355007D02*
X65451803Y13069293D01*
X64094660Y13640721D02*
X64023232Y13712150D01*
X64023232Y13712150D02*
X63951803Y13640721D01*
X63951803Y13640721D02*
X64023232Y13569293D01*
X64023232Y13569293D02*
X64094660Y13640721D01*
X64094660Y13640721D02*
X63951803Y13640721D01*
X65451803Y15783579D02*
X65451803Y15926436D01*
X65451803Y15926436D02*
X65380374Y16069293D01*
X65380374Y16069293D02*
X65308946Y16140721D01*
X65308946Y16140721D02*
X65166089Y16212150D01*
X65166089Y16212150D02*
X64880374Y16283579D01*
X64880374Y16283579D02*
X64523232Y16283579D01*
X64523232Y16283579D02*
X64237517Y16212150D01*
X64237517Y16212150D02*
X64094660Y16140721D01*
X64094660Y16140721D02*
X64023232Y16069293D01*
X64023232Y16069293D02*
X63951803Y15926436D01*
X63951803Y15926436D02*
X63951803Y15783579D01*
X63951803Y15783579D02*
X64023232Y15640721D01*
X64023232Y15640721D02*
X64094660Y15569293D01*
X64094660Y15569293D02*
X64237517Y15497864D01*
X64237517Y15497864D02*
X64523232Y15426436D01*
X64523232Y15426436D02*
X64880374Y15426436D01*
X64880374Y15426436D02*
X65166089Y15497864D01*
X65166089Y15497864D02*
X65308946Y15569293D01*
X65308946Y15569293D02*
X65380374Y15640721D01*
X65380374Y15640721D02*
X65451803Y15783579D01*
X64951803Y17569292D02*
X63951803Y17569292D01*
X65523232Y17212150D02*
X64451803Y16855007D01*
X64451803Y16855007D02*
X64451803Y17783578D01*
X65523232Y19426435D02*
X63594660Y18140721D01*
X65308946Y19855007D02*
X65380374Y19926435D01*
X65380374Y19926435D02*
X65451803Y20069292D01*
X65451803Y20069292D02*
X65451803Y20426435D01*
X65451803Y20426435D02*
X65380374Y20569292D01*
X65380374Y20569292D02*
X65308946Y20640721D01*
X65308946Y20640721D02*
X65166089Y20712150D01*
X65166089Y20712150D02*
X65023232Y20712150D01*
X65023232Y20712150D02*
X64808946Y20640721D01*
X64808946Y20640721D02*
X63951803Y19783578D01*
X63951803Y19783578D02*
X63951803Y20712150D01*
X65451803Y21640721D02*
X65451803Y21783578D01*
X65451803Y21783578D02*
X65380374Y21926435D01*
X65380374Y21926435D02*
X65308946Y21997863D01*
X65308946Y21997863D02*
X65166089Y22069292D01*
X65166089Y22069292D02*
X64880374Y22140721D01*
X64880374Y22140721D02*
X64523232Y22140721D01*
X64523232Y22140721D02*
X64237517Y22069292D01*
X64237517Y22069292D02*
X64094660Y21997863D01*
X64094660Y21997863D02*
X64023232Y21926435D01*
X64023232Y21926435D02*
X63951803Y21783578D01*
X63951803Y21783578D02*
X63951803Y21640721D01*
X63951803Y21640721D02*
X64023232Y21497863D01*
X64023232Y21497863D02*
X64094660Y21426435D01*
X64094660Y21426435D02*
X64237517Y21355006D01*
X64237517Y21355006D02*
X64523232Y21283578D01*
X64523232Y21283578D02*
X64880374Y21283578D01*
X64880374Y21283578D02*
X65166089Y21355006D01*
X65166089Y21355006D02*
X65308946Y21426435D01*
X65308946Y21426435D02*
X65380374Y21497863D01*
X65380374Y21497863D02*
X65451803Y21640721D01*
X65308946Y22712149D02*
X65380374Y22783577D01*
X65380374Y22783577D02*
X65451803Y22926434D01*
X65451803Y22926434D02*
X65451803Y23283577D01*
X65451803Y23283577D02*
X65380374Y23426434D01*
X65380374Y23426434D02*
X65308946Y23497863D01*
X65308946Y23497863D02*
X65166089Y23569292D01*
X65166089Y23569292D02*
X65023232Y23569292D01*
X65023232Y23569292D02*
X64808946Y23497863D01*
X64808946Y23497863D02*
X63951803Y22640720D01*
X63951803Y22640720D02*
X63951803Y23569292D01*
X65451803Y24855005D02*
X65451803Y24569291D01*
X65451803Y24569291D02*
X65380374Y24426434D01*
X65380374Y24426434D02*
X65308946Y24355005D01*
X65308946Y24355005D02*
X65094660Y24212148D01*
X65094660Y24212148D02*
X64808946Y24140720D01*
X64808946Y24140720D02*
X64237517Y24140720D01*
X64237517Y24140720D02*
X64094660Y24212148D01*
X64094660Y24212148D02*
X64023232Y24283577D01*
X64023232Y24283577D02*
X63951803Y24426434D01*
X63951803Y24426434D02*
X63951803Y24712148D01*
X63951803Y24712148D02*
X64023232Y24855005D01*
X64023232Y24855005D02*
X64094660Y24926434D01*
X64094660Y24926434D02*
X64237517Y24997863D01*
X64237517Y24997863D02*
X64594660Y24997863D01*
X64594660Y24997863D02*
X64737517Y24926434D01*
X64737517Y24926434D02*
X64808946Y24855005D01*
X64808946Y24855005D02*
X64880374Y24712148D01*
X64880374Y24712148D02*
X64880374Y24426434D01*
X64880374Y24426434D02*
X64808946Y24283577D01*
X64808946Y24283577D02*
X64737517Y24212148D01*
X64737517Y24212148D02*
X64594660Y24140720D01*
X61536887Y10997864D02*
X62251173Y10497864D01*
X61536887Y10140721D02*
X63036887Y10140721D01*
X63036887Y10140721D02*
X63036887Y10712150D01*
X63036887Y10712150D02*
X62965458Y10855007D01*
X62965458Y10855007D02*
X62894030Y10926436D01*
X62894030Y10926436D02*
X62751173Y10997864D01*
X62751173Y10997864D02*
X62536887Y10997864D01*
X62536887Y10997864D02*
X62394030Y10926436D01*
X62394030Y10926436D02*
X62322601Y10855007D01*
X62322601Y10855007D02*
X62251173Y10712150D01*
X62251173Y10712150D02*
X62251173Y10140721D01*
X63036887Y11426436D02*
X63036887Y12283578D01*
X61536887Y11855007D02*
X63036887Y11855007D01*
X61536887Y12783578D02*
X63036887Y12783578D01*
X61536887Y13640721D02*
X62394030Y12997864D01*
X63036887Y13640721D02*
X62179744Y12783578D01*
X61536887Y14926435D02*
X62322601Y14926435D01*
X62322601Y14926435D02*
X62465458Y14855007D01*
X62465458Y14855007D02*
X62536887Y14712150D01*
X62536887Y14712150D02*
X62536887Y14426435D01*
X62536887Y14426435D02*
X62465458Y14283578D01*
X61608316Y14926435D02*
X61536887Y14783578D01*
X61536887Y14783578D02*
X61536887Y14426435D01*
X61536887Y14426435D02*
X61608316Y14283578D01*
X61608316Y14283578D02*
X61751173Y14212150D01*
X61751173Y14212150D02*
X61894030Y14212150D01*
X61894030Y14212150D02*
X62036887Y14283578D01*
X62036887Y14283578D02*
X62108316Y14426435D01*
X62108316Y14426435D02*
X62108316Y14783578D01*
X62108316Y14783578D02*
X62179744Y14926435D01*
X62536887Y15640721D02*
X61536887Y15640721D01*
X62394030Y15640721D02*
X62465458Y15712150D01*
X62465458Y15712150D02*
X62536887Y15855007D01*
X62536887Y15855007D02*
X62536887Y16069293D01*
X62536887Y16069293D02*
X62465458Y16212150D01*
X62465458Y16212150D02*
X62322601Y16283578D01*
X62322601Y16283578D02*
X61536887Y16283578D01*
X62536887Y16997864D02*
X61536887Y16997864D01*
X62394030Y16997864D02*
X62465458Y17069293D01*
X62465458Y17069293D02*
X62536887Y17212150D01*
X62536887Y17212150D02*
X62536887Y17426436D01*
X62536887Y17426436D02*
X62465458Y17569293D01*
X62465458Y17569293D02*
X62322601Y17640721D01*
X62322601Y17640721D02*
X61536887Y17640721D01*
X61608316Y18926436D02*
X61536887Y18783579D01*
X61536887Y18783579D02*
X61536887Y18497864D01*
X61536887Y18497864D02*
X61608316Y18355007D01*
X61608316Y18355007D02*
X61751173Y18283579D01*
X61751173Y18283579D02*
X62322601Y18283579D01*
X62322601Y18283579D02*
X62465458Y18355007D01*
X62465458Y18355007D02*
X62536887Y18497864D01*
X62536887Y18497864D02*
X62536887Y18783579D01*
X62536887Y18783579D02*
X62465458Y18926436D01*
X62465458Y18926436D02*
X62322601Y18997864D01*
X62322601Y18997864D02*
X62179744Y18997864D01*
X62179744Y18997864D02*
X62036887Y18283579D01*
X59121971Y10140721D02*
X60621971Y10140721D01*
X60621971Y10140721D02*
X59550542Y10640721D01*
X59550542Y10640721D02*
X60621971Y11140721D01*
X60621971Y11140721D02*
X59121971Y11140721D01*
X59264828Y11855007D02*
X59193400Y11926436D01*
X59193400Y11926436D02*
X59121971Y11855007D01*
X59121971Y11855007D02*
X59193400Y11783579D01*
X59193400Y11783579D02*
X59264828Y11855007D01*
X59264828Y11855007D02*
X59121971Y11855007D01*
X59121971Y12569293D02*
X60621971Y12569293D01*
X59907685Y12569293D02*
X59907685Y13426436D01*
X59121971Y13426436D02*
X60621971Y13426436D01*
X59264828Y14140722D02*
X59193400Y14212151D01*
X59193400Y14212151D02*
X59121971Y14140722D01*
X59121971Y14140722D02*
X59193400Y14069294D01*
X59193400Y14069294D02*
X59264828Y14140722D01*
X59264828Y14140722D02*
X59121971Y14140722D01*
X59121971Y14855008D02*
X60621971Y14855008D01*
X59121971Y15712151D02*
X59979114Y15069294D01*
X60621971Y15712151D02*
X59764828Y14855008D01*
X59264828Y16355008D02*
X59193400Y16426437D01*
X59193400Y16426437D02*
X59121971Y16355008D01*
X59121971Y16355008D02*
X59193400Y16283580D01*
X59193400Y16283580D02*
X59264828Y16355008D01*
X59264828Y16355008D02*
X59121971Y16355008D01*
D12*
%TO.P,SW1,1*%
%TO.N,Net-(U2-+VIN)*%
X50165000Y51308000D03*
D13*
%TO.P,SW1,2*%
%TO.N,Net-(U4-OUT+)*%
X50165000Y48768000D03*
%TD*%
D12*
%TO.P,J2,1,Pin_1_1*%
%TO.N,Net-(J2-Pin_1)*%
X50165000Y42545000D03*
D13*
%TO.P,J2,2,Pin_2_2*%
%TO.N,Net-(J2-Pin_2)*%
X50165000Y40005000D03*
%TD*%
D14*
%TO.P,BT1,1,+_1*%
%TO.N,unconnected-(BT1-+-Pad1)*%
X-100143000Y117415000D03*
D15*
%TO.P,BT1,2,-_2*%
%TO.N,unconnected-(BT1---Pad2)*%
X-100143000Y125035000D03*
%TD*%
D16*
%TO.P,U2,1,+VOUT_1*%
%TO.N,+3V3*%
X45288200Y51435000D03*
D17*
%TO.P,U2,2,GND_2*%
%TO.N,GND*%
X45288200Y48895000D03*
D16*
%TO.P,U2,3,+VIN_3*%
%TO.N,Net-(U2-+VIN)*%
X45288200Y46355000D03*
%TO.P,U2,4,EN_4*%
%TO.N,unconnected-(U2-EN-Pad4)*%
X45288200Y43815000D03*
%TO.P,U2,5,PG_5*%
%TO.N,unconnected-(U2-PG-Pad5)*%
X45288200Y41275000D03*
%TO.P,U2,6,SEL_6*%
%TO.N,unconnected-(U2-SEL-Pad6)*%
X42748200Y41275000D03*
%TD*%
D18*
%TO.P,U1,1,DIR_1*%
%TO.N,unconnected-(U1-DIR-Pad1)*%
X36812500Y32385000D03*
%TO.P,U1,2,WHT_2*%
%TO.N,unconnected-(U1-WHT-Pad2)*%
X39352500Y32385000D03*
%TO.P,U1,3,TX(2)_3*%
%TO.N,unconnected-(U1-TX(2)-Pad3)*%
X36812500Y29845000D03*
%TO.P,U1,4,RX(2)_4*%
%TO.N,unconnected-(U1-RX(2)-Pad4)*%
X39352500Y29845000D03*
%TO.P,U1,5,TIME(1)_5*%
%TO.N,unconnected-(U1-TIME(1)-Pad5)*%
X36812500Y27305000D03*
%TO.P,U1,6,TIME(2)_6*%
%TO.N,unconnected-(U1-TIME(2)-Pad6)*%
X39352500Y27305000D03*
%TO.P,U1,7,READY_7*%
%TO.N,unconnected-(U1-READY-Pad7)*%
X36812500Y24765000D03*
%TO.P,U1,8,EXTINT_8*%
%TO.N,unconnected-(U1-EXTINT-Pad8)*%
X39352500Y24765000D03*
%TO.P,U1,9,SDA/SPI_CS_9*%
%TO.N,unconnected-(U1-SDA{slash}SPI_CS-Pad9)*%
X36812500Y22225000D03*
%TO.P,U1,10,SCL/SPI_CLK_10*%
%TO.N,unconnected-(U1-SCL{slash}SPI_CLK-Pad10)*%
X39352500Y22225000D03*
%TO.P,U1,11,TXD/SPI_MISO_11*%
%TO.N,Net-(U1-TXD{slash}SPI_MISO)*%
X36812500Y19685000D03*
%TO.P,U1,12,RXD/SPI_MOSI_12*%
%TO.N,Net-(U1-RXD{slash}SPI_MOSI)*%
X39276279Y19593509D03*
D19*
%TO.P,U1,13,GND_13*%
%TO.N,GND*%
X36812500Y17145000D03*
D18*
%TO.P,U1,14,+5V_14*%
%TO.N,+3V3*%
X39352500Y17145000D03*
%TD*%
D20*
%TO.P,U3,1,GPIO2_A0_D0_1*%
%TO.N,unconnected-(U3-GPIO2_A0_D0-Pad1)*%
X4822000Y31750000D03*
%TO.P,U3,2,GPIO3_A1_D1_2*%
%TO.N,unconnected-(U3-GPIO3_A1_D1-Pad2)*%
X7362000Y31750000D03*
%TO.P,U3,3,GPIO4_A2_D2_3*%
%TO.N,unconnected-(U3-GPIO4_A2_D2-Pad3)*%
X9902000Y31750000D03*
%TO.P,U3,4,GPIO5_A3_D3_4*%
%TO.N,unconnected-(U3-GPIO5_A3_D3-Pad4)*%
X12442000Y31750000D03*
%TO.P,U3,5,GPIO6_D4_SDA_5*%
%TO.N,unconnected-(U3-GPIO6_D4_SDA-Pad5)*%
X14982000Y31750000D03*
%TO.P,U3,6,GPIO7_D5_SCL_6*%
%TO.N,unconnected-(U3-GPIO7_D5_SCL-Pad6)*%
X17522000Y31750000D03*
%TO.P,U3,7,GPIO21_D6_TX_7*%
%TO.N,Net-(U1-RXD{slash}SPI_MOSI)*%
X20062000Y31750000D03*
%TO.P,U3,8,GPIO20_D7_RX_8*%
%TO.N,Net-(U1-TXD{slash}SPI_MISO)*%
X20062000Y46990000D03*
%TO.P,U3,9,GPIO8_D8_SCK_9*%
%TO.N,unconnected-(U3-GPIO8_D8_SCK-Pad9)*%
X17522000Y46990000D03*
%TO.P,U3,10,GPIO9_D9_MISO_10*%
%TO.N,unconnected-(U3-GPIO9_D9_MISO-Pad10)*%
X14982000Y46990000D03*
%TO.P,U3,11,GPIO10_D10_MOSI_11*%
%TO.N,unconnected-(U3-GPIO10_D10_MOSI-Pad11)*%
X12442000Y46990000D03*
%TO.P,U3,12,3V3_12*%
%TO.N,Net-(J1-Pin_3)*%
X9902000Y46990000D03*
%TO.P,U3,13,GND_13*%
%TO.N,GND*%
X7362000Y46990000D03*
%TO.P,U3,14,VBUS_14*%
%TO.N,Net-(J1-Pin_5)*%
X4822000Y46990000D03*
%TD*%
D15*
%TO.P,U4,1,OUT+_1*%
%TO.N,Net-(U4-OUT+)*%
X5080000Y25400000D03*
%TO.P,U4,2,B+_2*%
%TO.N,Net-(J2-Pin_1)*%
X8380000Y25400000D03*
%TO.P,U4,3,B-_3*%
%TO.N,Net-(J2-Pin_2)*%
X15680000Y25400000D03*
%TO.P,U4,4,OUT-_4*%
%TO.N,GND*%
X18980000Y25400000D03*
D21*
%TO.P,U4,5,VIN-_5*%
%TO.N,unconnected-(U4-VIN--Pad5)*%
X18980000Y2540000D03*
D22*
%TO.P,U4,6,VIN+_6*%
%TO.N,unconnected-(U4-VIN+-Pad6)*%
X5080000Y2540000D03*
%TD*%
D12*
%TO.P,J1,1,Pin_1_1*%
%TO.N,Net-(J1-Pin_1)*%
X14986000Y50800000D03*
D13*
%TO.P,J1,2,Pin_2_2*%
%TO.N,+3V3*%
X12446000Y50800000D03*
%TO.P,J1,3,Pin_3_3*%
%TO.N,Net-(J1-Pin_3)*%
X9906000Y50800000D03*
%TO.P,J1,4,Pin_4_4*%
%TO.N,+3V3*%
X7366000Y50800000D03*
%TO.P,J1,5,Pin_5_5*%
%TO.N,Net-(J1-Pin_5)*%
X4826000Y50800000D03*
%TD*%
D23*
%TO.N,+3V3*%
X45085000Y17145000D03*
%TD*%
%TO.N,Net-(U2-+VIN)*%
D24*
X47498000Y50800000D02*
X48006000Y51308000D01*
X45288200Y46355000D02*
X46863000Y46355000D01*
X46863000Y46355000D02*
X47498000Y46990000D01*
X48006000Y51308000D02*
X50165000Y51308000D01*
X47498000Y46990000D02*
X47498000Y50800000D01*
%TO.N,Net-(U4-OUT+)*%
D25*
X47752000Y36068000D02*
X47752000Y44450000D01*
X48895000Y10160000D02*
X52070000Y13335000D01*
X26670000Y24012831D02*
X26670000Y18415000D01*
X52070000Y13335000D02*
X52070000Y31750000D01*
X6096000Y28448000D02*
X22234831Y28448000D01*
X52070000Y31750000D02*
X47752000Y36068000D01*
X22234831Y28448000D02*
X26670000Y24012831D01*
X47752000Y44450000D02*
X50165000Y46863000D01*
X50165000Y46863000D02*
X50165000Y48768000D01*
X5080000Y25400000D02*
X5080000Y27432000D01*
X34925000Y10160000D02*
X48895000Y10160000D01*
X26670000Y18415000D02*
X34925000Y10160000D01*
X5080000Y27432000D02*
X6096000Y28448000D01*
%TO.N,Net-(J2-Pin_1)*%
X27940000Y10160000D02*
X33020000Y5080000D01*
X55245000Y42545000D02*
X50165000Y42545000D01*
X57785000Y9525000D02*
X57785000Y40005000D01*
X8380000Y14480000D02*
X12700000Y10160000D01*
X12700000Y10160000D02*
X27940000Y10160000D01*
X8380000Y25400000D02*
X8380000Y14480000D01*
X33020000Y5080000D02*
X53340000Y5080000D01*
X57785000Y40005000D02*
X55245000Y42545000D01*
X53340000Y5080000D02*
X57785000Y9525000D01*
%TO.N,Net-(J2-Pin_2)*%
X19050000Y12700000D02*
X29210000Y12700000D01*
X29210000Y12700000D02*
X34239498Y7670502D01*
X54610000Y38100000D02*
X52705000Y40005000D01*
X15680000Y16070000D02*
X19050000Y12700000D01*
X50850502Y7670502D02*
X54610000Y11430000D01*
X52705000Y40005000D02*
X50165000Y40005000D01*
X54610000Y11430000D02*
X54610000Y38100000D01*
X34239498Y7670502D02*
X50850502Y7670502D01*
X15680000Y25400000D02*
X15680000Y16070000D01*
%TO.N,+3V3*%
D26*
X22640683Y52543317D02*
X21082000Y54102000D01*
X25908000Y45974000D02*
X22640683Y49241317D01*
X8636000Y54102000D02*
X11430000Y54102000D01*
X45085000Y17145000D02*
X45085000Y23495000D01*
X12700000Y53086000D02*
X12700000Y50800000D01*
X11684000Y54102000D02*
X12700000Y53086000D01*
X7620000Y50800000D02*
X7620000Y53086000D01*
X22640683Y49241317D02*
X22640683Y52543317D01*
X43180000Y34798000D02*
X39878000Y38100000D01*
X39878000Y38100000D02*
X38100000Y38100000D01*
X11430000Y54102000D02*
X13716000Y54102000D01*
X38100000Y38100000D02*
X30226000Y38100000D01*
X21082000Y54102000D02*
X13716000Y54102000D01*
X7620000Y53086000D02*
X8636000Y54102000D01*
X45288200Y51435000D02*
X42291000Y51435000D01*
X13716000Y54102000D02*
X12700000Y53086000D01*
X38354000Y38100000D02*
X39878000Y39624000D01*
X30226000Y38100000D02*
X25908000Y42418000D01*
X25908000Y42418000D02*
X25908000Y45974000D01*
X39878000Y49022000D02*
X39878000Y39624000D01*
X45085000Y23495000D02*
X43180000Y25400000D01*
X11430000Y54102000D02*
X11684000Y54102000D01*
X42291000Y51435000D02*
X39878000Y49022000D01*
X38100000Y38100000D02*
X38354000Y38100000D01*
X39878000Y39624000D02*
X39878000Y38100000D01*
X43180000Y25400000D02*
X43180000Y34798000D01*
%TO.N,Net-(U1-TXD{slash}SPI_MISO)*%
D25*
X31750000Y29210000D02*
X31750000Y22860000D01*
X22602000Y44450000D02*
X22602000Y38358000D01*
X20062000Y46990000D02*
X22602000Y44450000D01*
X34925000Y19685000D02*
X36812500Y19685000D01*
X22602000Y38358000D02*
X31750000Y29210000D01*
X31750000Y22860000D02*
X34925000Y19685000D01*
%TO.N,Net-(U1-RXD{slash}SPI_MOSI)*%
X35560000Y12700000D02*
X41275000Y12700000D01*
X41366491Y19593509D02*
X39276279Y19593509D01*
X41275000Y12700000D02*
X42545000Y13970000D01*
X42545000Y18415000D02*
X41366491Y19593509D01*
X42545000Y13970000D02*
X42545000Y18415000D01*
X29210000Y19050000D02*
X35560000Y12700000D01*
X23963427Y31750000D02*
X29210000Y26503427D01*
X20062000Y31750000D02*
X23963427Y31750000D01*
X29210000Y26503427D02*
X29210000Y19050000D01*
%TO.N,Net-(J1-Pin_3)*%
D26*
X9906000Y46994000D02*
X9902000Y46990000D01*
X9906000Y50800000D02*
X9906000Y46994000D01*
%TO.N,Net-(J1-Pin_5)*%
X4826000Y46994000D02*
X4822000Y46990000D01*
X4826000Y50800000D02*
X4826000Y46994000D01*
%TD*%
D27*
X0Y53022500D02*
X0Y2540000D01*
X2286000Y0D02*
X0Y2540000D01*
X2286000Y0D02*
X70866000Y0D01*
X2794000Y55880000D02*
X0Y53022500D01*
X65660000Y48260000D02*
X73653200Y48260000D01*
X65660000Y33782000D02*
X65660000Y48260000D01*
X66700400Y16662400D02*
X73634600Y16662400D01*
X66700400Y5588000D02*
X66700400Y16662400D01*
X70866000Y55880000D02*
X2794000Y55880000D01*
X70866000Y55880000D02*
X73660000Y52133500D01*
X70866000Y0D02*
X73660000Y3556000D01*
X73634600Y16662400D02*
X73660000Y33782000D01*
X73660000Y48260000D02*
X73660000Y52133500D01*
X73660000Y33782000D02*
X65660000Y33782000D01*
X73660000Y5588000D02*
X66700400Y5588000D01*
X73660000Y5588000D02*
X73660000Y3556000D01*
M02*
